<svg xmlns="http://www.w3.org/2000/svg" xmlns:xlink="http://www.w3.org/1999/xlink" fill="none" version="1.1" width="64" height="64" viewBox="0 0 64 64"><defs><clipPath id="master_svg0_29_206"><rect x="0" y="0" width="64" height="64" rx="0"/></clipPath></defs><g clip-path="url(#master_svg0_29_206)"><g><path d="M17.372799999999998,27.6973L17.372799999999998,14.35715L31.6719,6L45.971,14.35715L45.971,27.3137L59,34.9286L59,51.6429L44.7009,60L32,52.5769L19.2991,60L5,51.6429L5,34.9286L17.372799999999998,27.6973ZM18.9285,31.9118L9.44389,37.4604L9.44389,49.041L19.3416,54.8312L29.2394,49.041L29.2394,37.943799999999996L18.9285,31.9118ZM21.7656,28.0427L31.9914,34.0202L41.5611,28.4263L41.5611,16.9544L31.6633,11.16877L21.7656,16.9544L21.7656,28.0427ZM44.8107,31.7758L34.8279,37.6017L34.8279,49.055L44.7257,54.8312L54.6234,49.055L54.6234,37.5025L44.8107,31.7758Z" fill="#FFFFFF" fill-opacity="1"/></g></g></svg>