<svg xmlns="http://www.w3.org/2000/svg" xmlns:xlink="http://www.w3.org/1999/xlink" fill="none" version="1.1" width="32" height="32" viewBox="0 0 32 32"><defs><clipPath id="master_svg0_29_210"><rect x="0" y="0" width="32" height="32" rx="0"/></clipPath></defs><g clip-path="url(#master_svg0_29_210)"><g><path d="M21.3946,5.00000315344C21.20496,5.00000315344,21.01532,5.00886026,20.828593,5.0295266C20.355945,5.0767638999999996,20,5.484187,20,5.965418C20,6.52341,20.472648,6.96626,21.02115,6.91017C21.13786,6.89836,21.25748,6.89245,21.3771,6.89245C22.33698,6.88655,23.25602,7.24969,23.95332,7.913959999999999C24.71481,8.63728,25.13202,9.62041,25.13202,10.67145C25.13202,10.77773,25.1291,10.88106,25.120350000000002,10.9844C25.07659,11.53058,25.50547,12,26.04814,12L26.05398,12C26.53538,12,26.94092,11.62801,26.98177,11.14382C26.99635,10.96078,27.00219,10.77478,26.99927,10.58583C26.95551,7.4711099999999995,24.46973,4.99705018,21.3946,5.00000315344Z" fill="#FFFFFF" fill-opacity="1"/></g><g><path d="M21.5478,2C21.4102,2,21.2754,2.00275117,21.1405,2.0082535C20.6754,2.033014,20.3093,2.418177,20.3093,2.885876L20.3093,2.894129C20.3093,3.3948400000000003,20.7304,3.79101,21.2313,3.769C21.3359,3.7635,21.4405,3.76075,21.5478,3.76075C22.4506,3.76075,23.3286,3.93682,24.1515,4.28622C24.9469,4.62186,25.6625,5.10607,26.279,5.7195800000000006C26.8927,6.33309,27.3771,7.04839,27.7129,7.84623C28.0624,8.66883,28.2386,9.543700000000001,28.2386,10.44883C28.2386,10.55338,28.2358,10.65792,28.2303,10.76247C28.2083,11.26593,28.6046,11.68686,29.1083,11.68686L29.1138,11.68686C29.5817,11.68686,29.9697,11.32095,29.9917,10.85325C29.9972,10.71845,30,10.58364,30,10.44883C29.9972,5.7745999999999995,26.2212,2,21.5478,2ZM9.89207,12.1491L8.66732,13.3761L4.3848199999999995,9.09526C4.34079,9.05124,4.34079,8.98246,4.3848199999999995,8.93844L5.45545,7.86824C5.49948,7.82422,5.56829,7.82422,5.61233,7.86824L9.89207,12.1491ZM12.3829,12.1491L5.84351,5.61503C5.67288,5.444459999999999,5.39215,5.444459999999999,5.22151,5.61503L2.12798,8.70734C1.9573401,8.87792,1.9573401,9.15854,2.12798,9.32911L8.66732,15.8659L12.3829,12.1491ZM24.2175,26.4689L23.0698,27.6161C23.0258,27.6601,22.957,27.6601,22.913,27.6161L18.6305,23.3353L19.8552,22.111L24.2175,26.4689ZM19.858,19.6212L16.139699999999998,23.3353L22.679,29.8721C22.8497,30.0426,23.1304,30.0426,23.301,29.8721L26.3946,26.7798C26.5652,26.6092,26.5652,26.3286,26.3946,26.158L19.858,19.6212ZM23.2928,8.73761C22.9515,8.38271,22.3708,8.39096,22.0212,8.740359999999999L19.5635,11.19715C19.2194,11.54105,18.6607,11.54105,18.3167,11.19715L17.383699999999997,10.2645C16.869,9.75004,16.0323,9.75004,15.5149,10.2645L5.3453599999999994,20.4301C3.6252,22.1495,3.6252,24.9365,5.3453599999999994,26.656C6.20406,27.5143,7.33248,27.9463,8.45815,27.9463C9.58382,27.9463,10.71224,27.5171,11.57094,26.656L21.7405,16.4904C22.2552,15.9759,22.2552,15.1396,21.7405,14.6224L20.8075,13.6897C20.4635,13.3458,20.4635,12.7873,20.8075,12.4434L23.279,9.97288C23.623,9.63174,23.6258,9.08426,23.2928,8.73761ZM10.32693,25.4097C9.29484,26.4414,7.62147,26.4414,6.58937,25.4097C6.0747,24.8952,5.81599,24.2184,5.81599,23.5416C5.81599,22.8648,6.0747,22.1908,6.58937,21.6736L16.293799999999997,11.97298C16.3791,11.88769,16.5195,11.88769,16.604799999999997,11.97298L20.0314,15.3982C20.1167,15.4835,20.1167,15.6238,20.0314,15.7091L10.32693,25.4097Z" fill="#FFFFFF" fill-opacity="1"/></g></g></svg>