<svg t="1710597448729" class="icon" viewBox="0 0 1024 1024" version="1.1" xmlns="http://www.w3.org/2000/svg" p-id="86322" width="32" height="32"><path d="M714.523876 974.868687c-4.783838 0-9.438384-1.163636-13.834344-3.490909l-195.878788-107.313132C253.594583 860.444444 50.346098 676.20202 50.346098 450.19798c0-216.565657 211.523232-399.515152 461.834343-399.515152 243.975758 0 455.49899 182.561616 461.834344 398.610101 3.749495 125.155556-60.121212 243.717172-175.062627 325.30101-12.929293 9.179798-30.90101 6.206061-40.080808-6.723232-9.179798-12.929293-6.206061-30.90101 6.852526-40.080808 99.038384-70.335354 154.117172-171.313131 151.014141-276.816162C911.178421 265.179798 726.030946 108.088889 512.309734 108.088889 296.778421 108.088889 107.881451 268.024242 107.881451 450.19798c0 196.525253 181.39798 356.460606 404.428283 356.460606 4.783838 0 9.567677 1.163636 13.834344 3.490909l130.456565 71.369697-0.775757-1.810101c-11.248485-23.660606-26.505051-67.10303-2.327273-91.410101 11.248485-11.248485 29.349495-11.248485 40.59798 0 9.69697 9.69697 10.989899 24.694949 3.878788 35.684848 0.387879 6.464646 4.654545 20.557576 10.214141 32.323233l32.840404 78.610101c4.654545 11.248485 1.810101 24.307071-7.240404 32.452525-5.430303 4.913131-12.412121 7.49899-19.264646 7.49899z m0 0" fill="#ffffff" p-id="86323"></path><path d="M439.129936 397.575758c-7.886869 0-14.351515-6.464646-14.351515-14.351516s6.464646-14.351515 14.351515-14.351515H697.586502c7.886869 0 14.351515 6.464646 14.351515 14.351515s-6.464646 14.351515-14.351515 14.351516H439.129936z m0 0M324.317815 397.575758c-7.886869 0-14.351515-6.464646-14.351515-14.351516s6.464646-14.351515 14.351515-14.351515h43.054545c7.886869 0 14.351515 6.464646 14.351516 14.351515s-6.464646 14.351515-14.351516 14.351516h-43.054545z m0 0M525.36832 541.090909c-7.886869 0-14.351515-6.464646-14.351515-14.351515s6.464646-14.351515 14.351515-14.351515H683.36428c7.886869 0 14.351515 6.464646 14.351515 14.351515s-6.464646 14.351515-14.351515 14.351515H525.36832z m0 0M439.129936 541.090909c-7.886869 0-14.351515-6.464646-14.351515-14.351515s6.464646-14.351515 14.351515-14.351515h28.70303c7.886869 0 14.351515 6.464646 14.351516 14.351515s-6.464646 14.351515-14.351516 14.351515h-28.70303z m0 0" fill="#ffffff" p-id="86324"></path></svg>