<svg t="1710677682008" class="icon" viewBox="0 0 1024 1024" version="1.1" xmlns="http://www.w3.org/2000/svg" p-id="6059" width="32" height="32"><path d="M621.568 208.299a38.101 38.101 0 0 0-73.941-18.518L386.773 833.28a38.101 38.101 0 0 0 73.899 18.475l160.853-643.456zM325.632 294.4a38.101 38.101 0 0 1 0 53.888L162.347 511.573 325.632 674.86a38.101 38.101 0 0 1-53.845 53.888L81.493 538.539a38.101 38.101 0 0 1 0-53.931L271.787 294.4a38.101 38.101 0 0 1 53.888 0z m372.736 0a38.101 38.101 0 0 0 0 53.888l163.285 163.285L698.368 674.86a38.101 38.101 0 0 0 53.888 53.888l190.25-190.208a38.101 38.101 0 0 0 0-53.931L752.257 294.4a38.101 38.101 0 0 0-53.888 0z" fill="#ffffff" p-id="6060"></path></svg>