<svg t="1710598544495" class="icon" viewBox="0 0 1024 1024" version="1.1" xmlns="http://www.w3.org/2000/svg" p-id="111177" width="32" height="32"><path d="M885.395 381.891c-47.236-49.229-110.544-77.299-179.128-79.64l-193.391-119.574-0.876 0 0-182.676-62.905 0 0 183.222-192.507 119.028c-68.618 2.338-132.082 30.384-179.562 79.57-48.965 50.725-75.931 118.595-75.931 191.108 0 72.021 28.492 138.035 80.227 185.883 50.179 46.408 117.875 71.967 190.617 71.967l195.569 0c4.12 0.183 8.256 0.297 12.419 0.297s8.299-0.114 12.419-0.297l197.569 0c72.742 0 140.438-25.559 190.617-71.967 51.735-47.848 80.227-113.862 80.227-185.883C960.759 500.386 933.995 432.54 885.395 381.891zM566.463 748.973c-24.137 10.486-49.391 16.458-75.221 17.807l-22.628 0c-25.831-1.349-51.084-7.32-75.221-17.807-26.641-11.574-50.769-28.073-71.716-49.04-41.677-41.717-65.58-96.702-65.58-150.857 0-27.499 5.91-55.421 17.567-82.991 11.519-27.243 28.552-53.229 49.26-75.149 21.248-22.492 45.49-40.187 72.053-52.595 27.366-12.783 55.948-19.264 84.951-19.264s57.585 6.481 84.951 19.264c26.564 12.408 50.806 30.104 72.053 52.595 20.708 21.92 37.741 47.906 49.26 75.149 11.657 27.57 17.567 55.492 17.567 82.991 0 54.155-23.903 109.14-65.58 150.857C617.232 720.9 593.103 737.399 566.463 748.973zM271.94 766.779c-56.583 0-108.846-19.516-147.162-54.952-38.487-35.595-59.682-84.923-59.682-138.897 0-113.822 84.967-203.433 194.577-206.734-42.16 52.408-67.577 117.656-67.577 182.88 0 84.185 42.329 164.476 108.377 217.703L271.94 766.779zM837.078 711.827c-38.316 35.437-90.579 54.952-147.162 54.952l-30.534 0c66.049-53.227 108.377-133.518 108.377-217.703 0-65.251-25.438-130.526-67.629-182.945 53.337 0.822 102.624 22.07 139.086 60.07 37.108 38.673 57.544 90.782 57.544 146.729C896.759 626.904 875.564 676.232 837.078 711.827zM129.096 896.076l703 0 0 63-703 0 0-63Z" fill="#ffffff" p-id="111178"></path></svg>