<svg t="1710678137557" class="icon" viewBox="0 0 1024 1024" version="1.1" xmlns="http://www.w3.org/2000/svg" p-id="22351" width="32" height="32"><path d="M689.67297 390.007325c0-97.998863-79.649076-177.667939-177.657939-177.667938S334.347092 292.008462 334.347092 390.007325s79.659076 177.657939 177.657939 177.657939S689.67297 488.006188 689.67297 390.007325z m-295.336574 0a117.678635 117.678635 0 1 1 117.668635 117.678635A117.808633 117.808633 0 0 1 394.336396 390.007325z" p-id="22352" fill="#ffffff"></path><path d="M1004.329319 794.392634L828.081364 618.134679a386.905511 386.905511 0 0 0 73.809144-228.247352c0-104.128792-40.54953-201.997657-114.208675-275.676802a390.125474 390.125474 0 0 0-411.465227-89.848958 29.949653 29.949653 0 0 0 20.869758 56.139349A330.726163 330.726163 0 0 1 512.005031 60.011154c181.85789 0 329.896173 147.998283 329.896173 329.896172s-147.998283 329.896173-329.896173 329.896173-329.896173-147.998283-329.896173-329.896173a329.756174 329.756174 0 0 1 79.059083-214.247514 29.999652 29.999652 0 1 0-45.589471-38.869549 389.835477 389.835477 0 0 0-19.639772 481.484414L19.690743 794.512632a29.889653 29.889653 0 0 0 13.559842 50.149419l124.398557 32.509622 32.509623 124.398557a29.739655 29.739655 0 0 0 21.109755 21.349753 28.45967 28.45967 0 0 0 7.79991 1.079987 29.999652 29.999652 0 0 0 21.229753-8.759898l233.927286-233.557291a30.899642 30.899642 0 0 0 2.789968-3.41996c11.569866 0.999988 23.23973 1.619981 34.999594 1.619981s23.189731-0.589993 34.659598-1.589981c0.219997 0.239997 0.369996 0.509994 0.609993 0.749991l236.19726 236.19726a30.489646 30.489646 0 0 0 21.239753 8.759898 30.109651 30.109651 0 0 0 28.909665-22.42974l32.74962-124.518555 124.398557-32.509623a29.719655 29.719655 0 0 0 21.349752-21.119755 30.19965 30.19965 0 0 0-7.79991-29.029663zM235.008245 936.000991l-23.749725-90.808947a30.13965 30.13965 0 0 0-21.469751-21.47975l-90.778947-23.799724 135.918424-135.728426c0.479994 0.489994 0.929989 0.999988 1.409983 1.489983a387.675502 387.675502 0 0 0 169.438034 99.518846z m599.223048-112.458695A30.14965 30.14965 0 0 0 812.751542 845.002047l-23.749725 90.828946-170.65802-170.66802a386.495516 386.495516 0 0 0 169.338036-99.608844c0.489994-0.479994 0.929989-0.999988 1.419983-1.479983l135.898424 135.718425z" p-id="22353" fill="#ffffff"></path></svg>