<svg t="1710596965874" class="icon" viewBox="0 0 1024 1024" version="1.1" xmlns="http://www.w3.org/2000/svg" p-id="62896" width="32" height="32"><path d="M510.976 167.936c2.048 0 5.12 0.512 9.216 2.56l328.704 209.92c5.12 3.072 7.168 8.192 7.168 13.312V839.68c0 9.216-7.168 16.384-16.384 16.384H184.32c-9.216 0-16.384-7.168-16.384-16.384V393.728c0-5.632 3.072-10.752 7.168-13.312L501.76 171.008c3.584-2.56 7.168-3.072 9.216-3.072m0-65.536c-15.36 0-30.72 4.608-44.032 13.312L140.288 324.608c-23.552 15.36-37.888 40.96-37.888 68.608V839.68c0 45.056 36.864 81.92 81.92 81.92h655.36c45.056 0 81.92-36.352 81.92-81.92V393.728c0-27.648-14.336-54.272-37.888-68.608l-328.704-209.92c-13.312-8.704-28.672-12.8-44.032-12.8z" fill="#ffffff" p-id="62897"></path><path d="M659.456 709.12H364.544c-17.92 0-32.768 14.848-32.768 32.768s14.848 32.768 32.768 32.768h294.912c17.92 0 32.768-14.848 32.768-32.768 0-17.92-14.848-32.768-32.768-32.768z" fill="#ffffff" p-id="62898"></path></svg>