<svg t="1710599410151" class="icon" viewBox="0 0 1024 1024" version="1.1" xmlns="http://www.w3.org/2000/svg" p-id="135122" width="32" height="32"><path d="M546.133333 392.533333v426.666667h-68.266666V392.533333a34.133333 34.133333 0 1 1 68.266666 0z" fill="#ffffff" p-id="135123"></path><path d="M853.333333 221.866667H170.666667a102.4 102.4 0 0 0-102.4 102.4v102.4a68.266667 68.266667 0 0 0 68.266666 68.266666h750.933334a68.266667 68.266667 0 0 0 68.266666-68.266666v-102.4a102.4 102.4 0 0 0-102.4-102.4z m-682.666666 68.266666h682.666666a34.133333 34.133333 0 0 1 34.133334 34.133334v102.4H136.533333v-102.4a34.133333 34.133333 0 0 1 34.133334-34.133334z" fill="#ffffff" p-id="135124"></path><path d="M819.2 426.666667H204.8a68.266667 68.266667 0 0 0-68.266667 68.266666v392.533334a68.266667 68.266667 0 0 0 68.266667 68.266666h614.4a68.266667 68.266667 0 0 0 68.266667-68.266666V494.933333a68.266667 68.266667 0 0 0-68.266667-68.266666z m-614.4 68.266666h614.4v392.533334H204.8V494.933333zM364.475733 76.032a34.133333 34.133333 0 0 1 46.165334 2.6112l1.877333 2.0992 98.133333 119.466667a34.133333 34.133333 0 0 1-50.8928 45.4144l-1.877333-2.0992-98.133333-119.466667a34.133333 34.133333 0 0 1 4.727466-48.0256z" fill="#ffffff" p-id="135125"></path><path d="M611.498667 80.725333a34.133333 34.133333 0 0 1 54.442666 41.1136l-1.706666 2.218667-98.133334 119.466667a34.133333 34.133333 0 0 1-54.442666-41.096534l1.706666-2.218666 98.133334-119.466667z" fill="#ffffff" p-id="135126"></path></svg>