<svg t="1710677819046" class="icon" viewBox="0 0 1024 1024" version="1.1" xmlns="http://www.w3.org/2000/svg" p-id="1755" width="32" height="32"><path d="M488 416c-57.6 0-104-46.4-104-104s46.4-104 104-104 104 46.4 104 104-46.4 104-104 104z m0-144c-22.4 0-40 17.6-40 40s17.6 40 40 40 40-17.6 40-40-17.6-40-40-40zM312 640c-57.6 0-104-46.4-104-104s46.4-104 104-104 104 46.4 104 104-46.4 104-104 104z m0-144c-22.4 0-40 17.6-40 40s17.6 40 40 40 40-17.6 40-40-17.6-40-40-40z m224 320c-57.6 0-104-46.4-104-104s46.4-104 104-104 104 46.4 104 104-46.4 104-104 104z m0-144c-22.4 0-40 17.6-40 40s17.6 40 40 40 40-17.6 40-40-17.6-40-40-40z m176-80c-57.6 0-104-46.4-104-104s46.4-104 104-104 104 46.4 104 104-46.4 104-104 104z m0-144c-22.4 0-40 17.6-40 40s17.6 40 40 40 40-17.6 40-40-17.6-40-40-40z m216 512H512C265.6 960 64 758.4 64 512S265.6 64 512 64s448 201.6 448 448c0 121.6-48 235.2-134.4 320-12.8 12.8-33.6 12.8-44.8 0-12.8-12.8-12.8-33.6 0-44.8C854.4 713.6 896 616 896 512c0-211.2-172.8-384-384-384S128 300.8 128 512s172.8 384 384 384h416c17.6 0 32 14.4 32 32s-14.4 32-32 32z" fill="#ffffff" p-id="1756"></path></svg>