<svg t="1710598752696" class="icon" viewBox="0 0 1024 1024" version="1.1" xmlns="http://www.w3.org/2000/svg" p-id="116175" width="32" height="32"><path d="M884.4 130.6H140.6c-41.9 0-76 34.1-76 76v613.3c0 41.9 34.1 76 76 76h743.8c41.9 0 76-34.1 76-76V206.6c0-41.9-34.1-76-76-76z m-743.8 72h743.8c2.2 0 4 1.8 4 4v371.3L796 461.7c-21.7-27.3-54.1-43.7-88.8-45-34.7-1.3-68.1 12.7-91.7 38.3L454 630c-2.8 3-7.2 3.5-10.5 1.3l-103-70.3c-31.5-21.5-72.8-22.5-105.3-2.7l-98.6 60.1V206.6c0-2.2 1.8-4 4-4z m743.8 621.3H140.6c-2.2 0-4-1.8-4-4V702.7l136.1-83c8.4-5.1 19.1-4.8 27.2 0.7l103 70.3c15.9 10.8 35.1 15.6 54.2 13.4 19-2.2 36.7-11.2 49.8-25.3l161.6-175c9.5-10.3 22.3-15.7 36.2-15.1 13.9 0.5 26.3 6.8 35.1 17.8l148.7 187v126.3c-0.1 2.3-1.9 4.1-4.1 4.1z" fill="#ffffff" p-id="116176"></path><path d="M231.875943 400.634663a69.6 69.6 0 1 0 98.427546-98.430982 69.6 69.6 0 1 0-98.427546 98.430982Z" fill="#ffffff" p-id="116177"></path></svg>