<svg t="1710599465032" class="icon" viewBox="0 0 1024 1024" version="1.1" xmlns="http://www.w3.org/2000/svg" p-id="139170" width="32" height="32"><path d="M900.829867 143.581867a34.133333 34.133333 0 0 1 43.690666 52.394666l-4.437333 3.6864a173.960533 173.960533 0 0 0-24.951467 27.6992C897.706667 251.460267 887.466667 278.254933 887.466667 307.2c0 28.945067 10.24 55.739733 27.648 79.854933 6.263467 8.635733 12.970667 16.247467 19.626666 22.715734l2.9696 2.833066c1.792 1.655467 3.191467 2.8672 4.096 3.584l0.5632 0.4608a34.133333 34.133333 0 0 1-41.540266 54.1696c-10.973867-8.3968-26.0608-23.074133-41.028267-43.776C834.56 392.123733 819.2 351.914667 819.2 307.2c0-44.714667 15.36-84.923733 40.618667-119.842133 14.9504-20.6848 30.037333-35.362133 41.0112-43.776zM75.3152 559.5136a34.133333 34.133333 0 0 1 47.854933-6.331733c10.9568 8.413867 26.0608 23.0912 41.028267 43.776C189.44 631.876267 204.8 672.085333 204.8 716.8c0 44.714667-15.36 84.923733-40.618667 119.842133-14.9504 20.701867-30.037333 35.3792-41.0112 43.776a34.133333 34.133333 0 0 1-43.690666-52.3776l4.437333-3.703466c1.365333-1.194667 3.191467-2.850133 5.358933-4.949334 6.656-6.485333 13.346133-14.097067 19.592534-22.7328C126.293333 772.539733 136.533333 745.745067 136.533333 716.8c0-28.945067-10.24-55.739733-27.648-79.837867a173.960533 173.960533 0 0 0-19.626666-22.715733l-4.232534-3.9936a77.858133 77.858133 0 0 0-2.816-2.440533l-0.580266-0.443734a34.133333 34.133333 0 0 1-6.314667-47.854933z" fill="#ffffff" p-id="139171"></path><path d="M921.6 136.533333a34.133333 34.133333 0 0 1 2.56 68.181334L921.6 204.8H238.933333a102.4 102.4 0 0 0-3.84 204.731733L238.933333 409.6h682.666667a34.133333 34.133333 0 0 1 2.56 68.181333L921.6 477.866667H238.933333C144.674133 477.866667 68.266667 401.4592 68.266667 307.2c0-92.672 73.847467-168.072533 165.888-170.5984L238.933333 136.533333h682.666667zM785.066667 546.133333c94.2592 0 170.666667 76.407467 170.666666 170.666667 0 92.672-73.847467 168.072533-165.888 170.5984L785.066667 887.466667H102.4a34.133333 34.133333 0 0 1-2.56-68.164267L102.4 819.2h682.666667a102.4 102.4 0 0 0 3.84-204.731733L785.066667 614.4H102.4a34.133333 34.133333 0 0 1-2.56-68.164267L102.4 546.133333h682.666667z" fill="#ffffff" p-id="139172"></path><path d="M375.466667 256v221.866667a34.133333 34.133333 0 1 1-68.266667 0V256h68.266667z" fill="#ffffff" p-id="139173"></path></svg>