<svg t="1710598512831" class="icon" viewBox="0 0 1024 1024" version="1.1" xmlns="http://www.w3.org/2000/svg" p-id="110975" width="32" height="32"><path d="M266.8 532.5 324 486.1l114.4 84.5c0 0 158-163.6 310.6-239.9l21.8 24.6c0 0-190.7 158.1-288.7 368.1L266.8 532.5zM202 209l0 369.8c0 60.1 0 218.8 314.1 343.6 314.1-124.8 314.1-283.5 314.1-343.6l0-369.8c-173.9-0.7-274-62.6-314.1-94.6C476 146.4 375.9 208.3 202 209zM516.1 982.2l-10-3.9C183.6 853.6 146.4 690.6 146.4 578.8l0-426.9 28.8 1c224.1 7.6 319.5-93.6 320.4-94.6l20.5-22.5 20.5 22.5c0.8 0.8 91.2 95 296.5 95l0 0c7.8 0 15.8-0.1 23.9-0.4l28.8-1 0 426.9c0 111.8-37.3 274.8-359.7 399.5L516.1 982.2z" p-id="110976" fill="#ffffff"></path></svg>