<svg t="1710598604168" class="icon" viewBox="0 0 1024 1024" version="1.1" xmlns="http://www.w3.org/2000/svg" p-id="111379" width="32" height="32"><path d="M1017.69901 473.833651c-13.058633-55.777177-35.499128-108.649591-66.698962-157.151039-30.600861-47.568688-68.755947-89.611468-113.407586-124.958037-45.032524-35.649639-95.343178-63.424576-149.532309-82.551778-56.050554-19.784536-114.92908-29.816565-175.002479-29.816565-60.882269 0-120.509255 10.297215-177.224311 30.60598-54.824964 19.631977-105.598413 48.107252-150.909434 84.635385-44.956757 36.241445-83.145632 79.278417-113.50588 127.915018-30.99608 49.653319-52.88982 103.670437-65.074056 160.552386-8.402003 39.226071 12.373654 79.121762 49.402467 94.863999l361.065993 153.49884-60.120498 23.10602c-22.345273 8.589374-34.666709 31.268434-29.297455 53.927016 8.941591 37.738365 32.205289 71.886989 65.505111 96.155119 32.945558 24.010111 74.431344 37.232566 116.817125 37.232566 42.392948 0 82.33881-12.550786 115.518838-36.295711 33.000848-23.616939 56.44987-56.988433 66.025245-93.965028 5.848433-22.580767-6.523173-46.168013-28.776297-54.866943l-65.128322-25.456861 371.859792-160.786855c37.417889-16.179436 57.807542-56.822564 48.483018-96.643512zM666.931256 169.034252c47.568688 16.790695 91.731934 41.171453 131.260051 72.463436a457.835442 457.835442 0 0 1 18.409458 15.404355L655.034732 412.333979c-34.905275-19.731294-72.157294-32.187883-110.298047-36.868063l-1.44163-231.654055c42.355064 2.721487 83.821396 11.168541 123.636201 25.222391z m-442.164878 74.984242c39.772825-32.062969 84.34153-57.058057 132.468236-74.292095 39.469755-14.132689 80.572608-22.724111 122.578527-25.695426l1.436511 230.857471c-38.557474 4.025917-76.256931 15.986945-111.631145 35.374215L209.866799 256.576447a449.73139 449.73139 0 0 1 14.899579-12.557953zM80.583871 519.508151c-9.094149-3.866191-14.209481-13.601293-12.164782-23.146975 15.350089-71.665829 48.96834-138.639192 96.873886-194.579168l150.776329 145.050763c-40.505927 33.644872-75.541235 77.692418-102.776585 129.093509L80.583871 519.508151z m507.70992 334.421425c-22.021726 15.759643-49.926696 24.438095-78.575008 24.438095-52.351257 0-98.607324-28.726127-115.860815-70.110548l114.009631-43.816148 116.881629 45.686787c-7.508151 16.882845-20.092726 32.091638-36.455437 43.801814z m-72.715312-156.465036a20.757227 20.757227 0 0 1-16.284896 0.049146l-227.334282-96.645559c24.858912-45.528085 56.590142-83.799894 92.964692-111.848209 44.271778-34.138385 94.602908-52.182316 145.54837-52.182316 50.422257 0 100.296735 17.694786 144.23063 51.172765 35.957829 27.400195 67.478138 64.816037 92.35548 109.365287l-231.479994 100.088886z m428.444814-185.255667l-138.442606 59.861455c-26.222727-48.431824-59.426304-90.182796-97.576271-122.607196l153.175292-147.3586a448.10546 448.10546 0 0 1 36.432911 48.923289c27.268114 42.388852 46.875518 88.576319 58.277505 137.277425 2.312957 9.877422-2.67746 19.930952-11.866831 23.903627z" fill="#ffffff" p-id="111380"></path></svg>