<svg xmlns="http://www.w3.org/2000/svg" xmlns:xlink="http://www.w3.org/1999/xlink" fill="none" version="1.1" width="32" height="32" viewBox="0 0 32 32"><defs><clipPath id="master_svg0_29_200"><rect x="0" y="0" width="32" height="32" rx="0"/></clipPath></defs><g clip-path="url(#master_svg0_29_200)"><g><path d="M11.13842,29.9419C10.4066,29.9261,9.734639999999999,29.5341,9.36064,28.9049L8.64953,27.7671L8.48953,27.5123L6.96064,25.0649C5.47323,24.1582,3.11471,22.6945,2.812491,22.4338C2.285483,22.0241,1.984211,21.3885,2.000638723,20.7212C2.0265515,20.1071,2.29002,19.527,2.735454,19.1034L2.877676,18.9434C3.47956,18.3388,4.2788,17.9707,5.12953,17.906399999999998L8.418420000000001,17.906399999999998L9.858419999999999,16.419C7.43471,15.5182,4.305820000000001,14.3449,4.0450800000000005,14.2442C3.2595799999999997,13.9604,2.703525,13.255,2.611009,12.4249C2.551674,11.66986,2.834467,10.92807,3.38138,10.40416C3.41101,10.37453,4.65545,9.218969999999999,5.28953,8.67971C5.8428,8.201080000000001,6.54908,7.93623,7.28064,7.93305L7.39323,7.93305L12.4895,8.25897L17.6451,8.59082L22.4984,3.77897C23.5426,2.671499,24.9885,2.0307827,26.5103,2.001194C27.4508,1.9772428,28.3647,2.31441,29.0643,2.943416C29.678,3.6307,30.001,4.52938,29.9651,5.45008C29.9393,6.97617,29.2983,8.42716,28.1873,9.473790000000001L23.334,14.333C23.411,15.6545,23.5236,17.5567,23.6303,19.3523L23.7784,21.859C23.9147,24.1582,23.9325,24.4012,23.9325,24.4901C23.9771,25.2793,23.7088,26.0543,23.1858,26.6471C22.7592,27.1745,21.8762,28.1227,21.5147,28.5079C20.9898,29.0724,20.2397,29.3725,19.4703,29.3256C18.6344,29.242,17.9204,28.6869,17.633200000000002,27.8975C17.5325,27.6308,16.3947,24.5612,15.5058,22.1434L14.0006,23.5656L14.0006,26.7419C14.0006,27.2634,13.9236,27.9686,12.9755,29.0708L12.9103,29.1419C12.4509,29.6355,11.81245,29.9238,11.13842,29.9419ZM4.27027,20.5671L4.21694,20.6145C4.169700000000001,20.6584,4.13843,20.7168,4.12805,20.7805C4.35323,20.9405,6.45694,22.2856,8.2762,23.3701L8.38879,23.4353L8.63768,23.7256C8.91027,24.176,9.674710000000001,25.3908,10.29101,26.3805L10.45101,26.6293L11.1799,27.8145C11.2672,27.7805,11.34606,27.728,11.41101,27.6605C11.60657,27.4234,11.89694,27.0679,11.89101,26.8249L11.89101,26.7301L11.89101,24.6916L11.89101,22.6412L16.3947,18.3034L16.957700000000003,19.8442C17.8169,22.2145,19.5118,26.7775,19.6362,27.0975C19.6466,27.1261,19.6628,27.1523,19.6836,27.1745C19.8029,27.1679,19.9133,27.1094,19.9858,27.0145C20.2466,26.736,21.171,25.7642,21.5562,25.2367C21.7451,25.0409,21.8402,24.773,21.8169,24.5019C21.8169,24.3479,21.7577,23.4708,21.6688,21.9479L21.5206,19.4412C21.3962,17.4145,21.2658,15.2516,21.1947,13.9419L21.1947,13.4679L26.7236,7.93304C27.4074,7.28489,27.8059,6.39187,27.8318,5.45008C27.8587,5.0892800000000005,27.7627,4.729979999999999,27.5592,4.430820000000001C27.2508,4.2158999999999995,26.8797,4.10959,26.5043,4.1286000000000005C25.5449,4.16974,24.6429,4.59723,24.0036,5.31379L18.4747,10.84268L17.9947,10.81305L12.3592,10.44564L7.38138,10.12564L7.32805,10.12564C7.07897,10.11287,6.836,10.20534,6.65842,10.38045C6.13101,10.81897,5.011010000000001,11.86193,4.88064,11.98638C4.79648,12.0501,4.73937,12.1432,4.7206399999999995,12.2471C4.74592,12.27,4.7764500000000005,12.2863,4.8095300000000005,12.2945C5.08805,12.4012,9.64508,14.1079,12.1162,15.0205L13.651,15.613L9.30138,20.099L5.12953,20.099C4.809699999999999,20.1838,4.5149799999999995,20.3444,4.27027,20.5671Z" fill="#FFFFFF" fill-opacity="1"/></g></g></svg>