<svg t="1710596921071" class="icon" viewBox="0 0 1024 1024" version="1.1" xmlns="http://www.w3.org/2000/svg" p-id="60985" width="32" height="32"><path d="M918.290634 229.992725H721.834656v-5.030563c0-54.443874-44.283487-98.735548-98.715081-98.735548H400.850749c-54.428525 0-98.714058 44.291674-98.714058 98.735548v5.030563H105.695039c-54.443874 0-98.715082 44.291674-98.715081 98.721222v470.330031c0 54.442851 44.271208 98.728385 98.715081 98.728385h812.596619c54.443874 0 98.728385-44.285534 98.728384-98.728385V328.713947c0-54.429548-44.284511-98.721222-98.729408-98.721222z m-552.875884-5.030563c0-19.549203 15.907263-35.450326 35.435999-35.450326h222.268826c19.544086 0 35.437023 15.901123 35.437023 35.450326v5.030563H365.41475v-5.030563z m-259.719711 68.315785h812.596619c19.52976 0 35.437023 15.907263 35.437022 35.436v66.575144c-0.775665 2.20522-1.2822 4.551657-1.2822 7.016797 0 16.964336-5.467514 38.352416-48.005244 53.591462l-243.545365 61.657145c-3.465931-32.322085-33.068074-57.656026-68.998329-57.656026H432.089155c-36.084774 0-65.786177 25.566231-69.026981 58.078651l-245.277819-62.080794c-36.366183-13.040988-45.622992-30.568142-47.524292-45.989335v-81.193044c-0.001023-19.528736 15.90624-35.436 35.434976-35.436z m513.367135 230.645593v41.311812c0 11.834513-12.454635 21.797402-27.165656 21.797402H432.089155c-14.737626 0-27.179982-9.961866-27.179981-21.797402v-41.311812c0-11.835536 12.441332-21.825031 27.179981-21.825031h159.808387c14.709997 0 27.164632 9.989495 27.164632 21.825031z m299.22846 310.556438h-812.595595c-19.528736 0-35.436-15.907263-35.435999-35.436v-7.918327c12.835304 7.453747 27.714146 11.807907 43.608106 11.807906h592.863541c11.652364 0 21.079042-9.441004 21.079042-21.107695 0-11.638038-9.426678-21.079042-21.079042-21.079042H113.867146c-21.40343 0-39.311252-14.990383-43.608106-34.899788V479.420042c9.791997 6.411001 21.247887 11.949123 34.392229 16.584691 0.605796 0.203638 1.212615 0.387832 1.831715 0.549514l256.254802 64.877483v3.804645c0 35.281481 31.09719 63.996418 69.350346 63.996419h159.808386c38.254179 0 69.350346-28.715961 69.350346-63.996419v-4.227269l254.508023-64.454859a26.689819 26.689819 0 0 0 1.816365-0.549514c13.964008-4.909813 25.982716-10.877723 36.155382-17.78912v247.631419c-4.283551 19.909406-22.192397 34.899788-43.608107 34.899788h-102.053099c-11.653388 0-21.093369 9.441004-21.093369 21.079042 0 11.666691 9.441004 21.107695 21.093369 21.107695h102.053099c15.892937 0 30.786105-4.354159 43.608107-11.807906v7.918327c0.001023 19.528736-15.90624 35.436-35.436 35.436z" fill="#ffffff" p-id="60986"></path></svg>