<svg t="1650420515904" class="icon" viewBox="0 0 1024 1024" version="1.1" xmlns="http://www.w3.org/2000/svg" p-id="6781" width="200" height="200"><path d="M457.8816 954.2656C214.016 954.2656 15.616 755.8656 15.616 512S214.016 69.7344 457.8816 69.7344s442.2656 198.4 442.2656 442.2656-198.41024 442.2656-442.2656 442.2656z m0-742.25664c-165.41696 0-299.99104 134.57408-299.99104 299.99104S292.4544 811.99104 457.8816 811.99104 757.87264 677.41696 757.87264 512 623.29856 212.00896 457.8816 212.00896z" fill="#2CAC57" p-id="6782"></path><path d="M937.24672 849.11104m-71.13728 0a71.13728 71.13728 0 1 0 142.27456 0 71.13728 71.13728 0 1 0-142.27456 0Z" fill="#F4B122" p-id="6783"></path><path d="M457.8816 954.2656c-175.33952 0-334.2848-103.71072-404.9408-264.21248l-1.95584-4.5056c-15.4112-36.13696 1.39264-77.9264 37.51936-93.3376 36.12672-15.4112 77.9264 1.3824 93.3376 37.51936l1.29024 2.9696c47.95392 108.93312 155.79136 179.29216 274.7392 179.29216 117.5552 0 224.88064-69.21216 273.41824-176.32256 0.65536-1.44384 1.31072-2.9184 1.9456-4.39296 15.60576-36.05504 57.47712-52.6336 93.53216-37.02784 36.05504 15.60576 52.6336 57.47712 37.02784 93.53216-0.95232 2.21184-1.93536 4.4032-2.92864 6.59456-71.53664 157.88032-229.72416 259.8912-402.98496 259.8912z" fill="#F4B122" p-id="6784"></path></svg>
