<svg t="1709550431098" class="icon" viewBox="0 0 1024 1024" version="1.1" xmlns="http://www.w3.org/2000/svg" p-id="9318" width="128" height="128"><path d="M882.521 282.988l-354.987-204.861c-8.98-5.219-20.146-5.219-29.127 0l-354.987 204.861c-8.98 5.219-14.563 14.806-14.563 25.244v409.842c0 10.437 5.583 20.025 14.563 25.244l354.987 204.982c4.491 2.548 9.588 3.884 14.563 3.884s10.073-1.334 14.563-3.884l354.987-204.982c8.98-5.219 14.563-14.806 14.563-25.244v-409.842c0-10.437-5.583-20.025-14.563-25.244zM838.83 701.326l-325.859 188.112-325.859-188.112v-376.225l325.859-188.112 325.859 188.112v376.225z" fill="#ffffff" p-id="9319" stroke-width="3"></path><path d="M270.124 383.476c-8.010 13.957-3.277 31.797 10.681 39.807l202.676 116.994v231.439c0 16.142 12.986 29.127 29.127 29.127s29.127-12.986 29.127-29.127v-231.075l203.404-117.479c13.957-8.010 18.69-25.851 10.681-39.807s-25.851-18.69-39.807-10.681l-203.040 117.236-203.040-117.236c-13.957-8.010-31.676-3.155-39.807 10.801z" fill="#ffffff" p-id="9320" stroke-width="3"></path></svg>