<svg t="1666091488830" class="icon" viewBox="0 0 1026 1024" version="1.1" xmlns="http://www.w3.org/2000/svg" p-id="1008" width="200" height="200"><path d="M737.55423 530.828292c-0.170769 10.783419-0.366528 21.783423-0.366528 32.954196 0 17.918219-1.695192 34.720195-4.860661 50.418421 5.518745-25.473694 6.989022-52.546782 5.227189-83.372617zM296.808516 563.365979c0-8.205228-0.112457-16.277174-0.237411-24.211671-0.083302 8.292695-0.012495 16.35631 0.237411 24.211671zM545.92258 779.367573a3.111323 3.111323 0 0 0 0.970466-0.183264c-0.7039 0.087467-1.411966 0.137448-2.115866 0.22075l1.1454-0.037486zM731.464867 618.057782c0.233245-0.987126 0.46649-1.982583 0.68724-2.978039-0.208255 1.007952-0.46649 1.978418-0.68724 2.978039z" fill="#A0D9F6" p-id="1009"></path><path d="M514.163765 0.033321C231.520722 0.033321 2.361606 229.196601 2.361606 511.839644c0 188.941001 102.419576 353.961888 254.749432 442.628335 17.039385-47.952687 45.936783-86.054935 81.906505-114.231773 22.437343-17.734955 48.119291-31.946244 76.421081-42.09657-59.535804-51.838717-61.230996-65.945878-40.759576-63.996616-29.626289-23.066271-53.217362-54.658483-66.366552-94.768304 4.760698 15.048472 11.208259 29.413869 19.900802 43.304446-194.655506-187.691474-50.455907-538.492058 186.075419-414.226583v-0.062476l0.112458 0.120788c3.706931-1.945097 7.384705-3.773572 11.04582-5.481259 0.787202-0.366528 1.566074-0.674745 2.349111-1.032943a249.459767 249.459767 0 0 1 8.609242-3.769407c0.170769-0.070807 0.337372-0.124953 0.508141-0.191594 151.671771-61.605854 263.700211 77.025019 260.105738 225.781227-1.1454 71.156406-28.589181 144.199599-90.532408 197.562739 0.191594-0.341537 0.354033-0.67891 0.545627-1.020447-13.457407 22.445673-30.805009 41.117774-50.743298 56.053788 10.212802 3.365393 5.951914 19.9966-28.54753 61.972382h-0.266566c28.143517 10.175316 53.692182 24.353284 76.008737 42.038258 34.137082 26.802358 61.918236 62.538834 79.178371 107.180275 145.994753-90.153384 243.312093-251.588128 243.312093-435.760101 0-282.647208-229.159115-511.810488-511.810488-511.810488z" fill="#A0D9F6" p-id="1010"></path><path d="M703.483789 840.41947c35.140869 27.84363 62.247278 64.329823 79.074244 107.246916 0.033321-0.020825 0.070807-0.041651 0.099962-0.066641-17.251805-44.645605-45.032959-80.382082-79.174206-107.180275zM544.781345 779.405059c0.7039-0.083302 1.411966-0.133283 2.115866-0.22075 10.633476-3.169634 88.970499-49.510431 109.400268-42.779644 19.934123-14.936015 37.281725-33.608115 50.743297-56.053789 11.458164-20.554722 19.413487-40.897024 24.428256-62.297259 0.22075-0.999622 0.478985-1.970088 0.68724-2.978039 0.066641-0.291556 0.112457-0.587278 0.174934-0.874669 3.165469-15.702391 4.860661-32.504366 4.860661-50.418421 0-11.170773 0.195759-22.170777 0.366528-32.954196-0.783037-13.678157-2.182507-28.08937-4.144265-43.429399-96.575954 5.901933-165.050042-28.218488-219.121248-82.643726-75.917105 51.713764-148.173095 81.465006-215.822495 82.643726-1.007952 18.276417-1.724347 35.43659-1.890951 51.75125 0.124953 7.934497 0.233245 16.010608 0.23741 24.211671 0.887164 27.631211 4.119275 52.671735 11.50398 76.004572 13.149191 40.109822 36.740263 71.702033 66.366552 94.768304 31.717164 3.015526 116.65169 44.553973 122.249572 44.049998 19.438477 2.549035 28.585016 1.811814 47.844395 1.220371zM339.017543 840.236206c-35.969722 28.176837-64.86712 66.279085-81.906505 114.231773l0.01666 0.012495c16.597886-45.978434 44.791383-84.917866 81.889845-114.244268z" fill="#FCE9EA" p-id="1011"></path><path d="M703.483789 840.41947c-22.316555-17.684974-47.86522-31.858777-76.008737-42.038258l-211.894815-0.116623a1.945097 1.945097 0 0 0-0.145778-0.124953c-28.30179 10.154491-53.983738 24.36578-76.421081 42.09657-37.098461 29.326402-65.291959 68.269999-81.889845 114.244268 75.538082 43.966696 163.342355 69.165493 257.036066 69.165493 98.429419 0 190.357132-27.81864 268.394269-75.979581-16.818636-42.917093-43.92921-79.407451-79.070079-107.246916z" fill="#CFE07D" p-id="1012"></path><path d="M415.584402 798.264589l211.894815 0.116623h0.266566c34.499445-41.975782 38.764497-58.606989 28.54753-61.972382-20.425604-6.730786-98.766792 39.610011-109.400267 42.779644a3.148808 3.148808 0 0 1-0.970466 0.183264l-1.141235 0.037486c-19.259379 0.591443-28.405917 1.328664-47.852725-1.216206-5.593717 0.503976-90.528242-41.038637-122.249572-44.049998-20.475585-1.949262-18.776228 12.157899 40.759576 63.996616a1.945097 1.945097 0 0 1 0.145778 0.124953z" fill="#ED7667" p-id="1013"></path><path d="M536.409513 258.227282c0.170769-0.070807 0.337372-0.124953 0.508141-0.191594l-0.508141 0.191594zM296.575271 539.154308c0.170769-16.31466 0.882999-33.478998 1.890951-51.75125 67.6494-1.182886 139.905391-30.934127 215.822495-82.643726V268.452579c-236.531326-124.265476-380.726759 226.530943-186.071254 414.222418-8.692544-13.894742-15.140104-28.255974-19.900802-43.304446-7.384705-23.332837-10.616816-48.373361-11.50398-76.004572a565.073666 565.073666 0 0 1-0.23741-24.211671zM525.446995 263.029632c0.787202-0.366528 1.566074-0.674745 2.349111-1.032943-0.783037 0.358198-1.557744 0.662249-2.349111 1.032943zM706.490984 681.375489c61.943226-53.36314 89.387008-126.406332 90.532408-197.562739-1.699357 70.281737-29.188954 142.820954-90.532408 197.562739z" fill="#FBCE77" p-id="1014"></path><path d="M514.288717 404.755167c54.071205 54.425238 122.549458 88.549824 219.121247 82.643726 1.961758 15.340028 3.365393 29.751242 4.144266 43.429399 1.761833 30.82167 0.291556 57.894758-5.227189 83.376782-0.062476 0.287391-0.108292 0.583113-0.174934 0.874669-0.22075 0.995457-0.453995 1.990913-0.68724 2.978039-5.014769 21.400235-12.970092 41.742537-24.428256 62.297259-0.191594 0.341537-0.354033 0.67891-0.545627 1.020448 61.343453-54.741785 88.833051-127.281001 90.532408-197.562739 3.590308-148.752043-108.433967-287.387081-260.105738-225.781227-0.170769 0.070807-0.337372 0.124953-0.508141 0.191594-2.853087 1.166225-5.731165 2.461568-8.609242 3.769407-0.783037 0.358198-1.561909 0.662249-2.349111 1.032942a266.190935 266.190935 0 0 0-11.04582 5.48126l-0.112458-0.120788v136.369229z" fill="#F7B970" p-id="1015"></path></svg>