<svg t="1694687446543" class="icon" viewBox="0 0 1024 1024" version="1.1" xmlns="http://www.w3.org/2000/svg" p-id="10621" width="128" height="128"><path d="M224.8 70.9c-74 21.4-132.5 80-154 154l154-154z" fill="#2DDFFD" p-id="10622"></path><path d="M277.1 62.3c-115.9 5-209.8 98.9-214.8 214.8L277.1 62.3z" fill="#2DDEFD" p-id="10623"></path><path d="M321.1 62H287C163.3 62 62 163.3 62 287v34.1L321.1 62z" fill="#2EDDFD" p-id="10624"></path><path d="M364.8 62H287C163.3 62 62 163.3 62 287v77.8L364.8 62z" fill="#2EDCFD" p-id="10625"></path><path d="M408.5 62H287c-34.6 0-67.4 7.9-96.7 22L84 190.3c-14.1 29.3-22 62.2-22 96.7v121.5L408.5 62z" fill="#2EDBFD" p-id="10626"></path><path d="M452.2 62H287c-11.4 0-22.6 0.9-33.5 2.5l-189 189c-1.7 11-2.5 22.2-2.5 33.5v165.2L452.2 62z" fill="#2FDAFD" p-id="10627"></path><path d="M62 495.9L495.9 62H299.7L62 299.7z" fill="#2FD9FD" p-id="10628"></path><path d="M62 539.6L539.6 62H343.4L62 343.4z" fill="#30D8FE" p-id="10629"></path><path d="M62 583.3L583.3 62H387.1L62 387.1z" fill="#30D7FE" p-id="10630"></path><path d="M62 627L627 62H430.8L62 430.8z" fill="#30D6FE" p-id="10631"></path><path d="M62 670.7L670.7 62H474.5L62 474.5z" fill="#31D5FE" p-id="10632"></path><path d="M62 714.4L714.4 62H518.2L62 518.2z" fill="#31D4FE" p-id="10633"></path><path d="M737 62H561.9L62 561.9V737c0 6.8 0.4 13.5 1 20.1L757.1 63c-6.6-0.6-13.3-1-20.1-1z" fill="#32D3FE" p-id="10634"></path><path d="M737 62H605.6L62 605.6V737c0 19.8 2.6 39 7.5 57.3L794.3 69.5C776 64.6 756.8 62 737 62z" fill="#32D2FE" p-id="10635"></path><path d="M737 62h-87.7L62 649.3V737c0 31.8 6.7 62.1 18.8 89.7L826.7 80.8C799.1 68.7 768.8 62 737 62z" fill="#32D1FE" p-id="10636"></path><path d="M737 62h-44L62 693v44c0 43.3 12.4 83.9 33.9 118.3L855.3 95.9C820.9 74.4 780.3 62 737 62z" fill="#33D0FE" p-id="10637"></path><path d="M737 62h-0.3L62 736.7v0.3c0 54.5 19.7 104.6 52.2 143.7l766.5-766.5C841.6 81.7 791.5 62 737 62z" fill="#33CFFE" p-id="10638"></path><path d="M776.7 65.6L65.6 776.7c8.9 49.5 34.1 93.6 69.9 126.3L903 135.5c-32.7-35.7-76.7-61-126.3-69.9z" fill="#33CEFE" p-id="10639"></path><path d="M811.3 74.7L74.7 811.3c16 45.4 46.2 84.2 85.2 111l762.5-762.5c-26.9-38.9-65.7-69.1-111.1-85.1z" fill="#34CDFE" p-id="10640"></path><path d="M841.7 88.1L88.1 841.7c22.1 41.7 57 75.8 99.3 96.9l751.2-751.2c-21.1-42.4-55.2-77.2-96.9-99.3z" fill="#34CDFE" p-id="10641"></path><path d="M868.6 104.9L104.9 868.6c27.9 38.4 67.5 67.8 113.6 82.6l732.8-732.8c-14.9-46-44.3-85.7-82.7-113.5z" fill="#35CCFE" p-id="10642"></path><path d="M253.8 959.5l705.7-705.7c-7.5-50.3-31.9-95.3-67.1-129.1L124.7 892.4c33.8 35.2 78.8 59.6 129.1 67.1z" fill="#35CBFE" p-id="10643"></path><path d="M962 287c0-52.5-18.3-101-48.8-139.4L147.6 913.2C186 943.7 234.5 962 287 962h8l667-667v-8z" fill="#35CAFE" p-id="10644"></path><path d="M962 287c0-41.3-11.3-80.1-31-113.5L173.5 931c33.4 19.6 72.2 31 113.5 31h51.7L962 338.7V287z" fill="#36C9FE" p-id="10645"></path><path d="M962 287c0-29.8-5.9-58.2-16.5-84.2L202.8 945.5c26.1 10.6 54.5 16.5 84.2 16.5h95.4L962 382.4V287z" fill="#36C8FE" p-id="10646"></path><path d="M962 287c0-17.6-2.1-34.7-6-51.1L235.9 956c16.4 3.9 33.5 6 51.1 6h139.1L962 426.1V287z" fill="#36C7FE" p-id="10647"></path><path d="M962 287c0-4.4-0.2-8.7-0.4-13L274 961.6c4.3 0.2 8.6 0.4 13 0.4h182.8L962 469.8V287z" fill="#37C6FE" p-id="10648"></path><path d="M513.5 962L962 513.5V317.3L317.3 962z" fill="#37C5FE" p-id="10649"></path><path d="M557.2 962L962 557.2V361L361 962z" fill="#38C4FE" p-id="10650"></path><path d="M600.9 962L962 600.9V404.7L404.7 962z" fill="#38C3FE" p-id="10651"></path><path d="M644.6 962L962 644.6V448.4L448.4 962z" fill="#38C2FE" p-id="10652"></path><path d="M688.3 962L962 688.3V492.1L492.1 962z" fill="#39C1FF" p-id="10653"></path><path d="M732 962l230-230V535.8L535.8 962z" fill="#39C0FF" p-id="10654"></path><path d="M962 737V579.5L579.5 962H737c14.7 0 29-1.5 42.9-4.2l177.9-177.9c2.7-13.9 4.2-28.2 4.2-42.9z" fill="#3ABFFF" p-id="10655"></path><path d="M962 737V623.2L623.2 962H737c41.2 0 80-11.3 113.3-30.9l80.8-80.8C950.7 817 962 778.2 962 737z" fill="#3ABEFF" p-id="10656"></path><path d="M962 666.9L666.9 962H737c123.8 0 225-101.3 225-225v-70.1z" fill="#3ABDFF" p-id="10657"></path><path d="M962 710.6L710.6 962H737c123.8 0 225-101.3 225-225v-26.4z" fill="#3BBCFF" p-id="10658"></path><path d="M961.2 755.1L755.1 961.2c109.4-8.8 197.3-96.7 206.1-206.1z" fill="#3BBBFF" p-id="10659"></path><path d="M949.5 810.5l-139 139c64.9-22.6 116.4-74.1 139-139z" fill="#3BBAFF" p-id="10660"></path><path d="M486.5 724.8L295.6 533.9c-14.1-14.1-14.1-36.9 0-50.9l190.9-190.9c14.1-14.1 36.9-14.1 50.9 0l191 190.9c14.1 14.1 14.1 36.9 0 50.9L537.5 724.8c-14.1 14.1-36.9 14.1-51 0z" fill="#C1F4FF" p-id="10661"></path><path d="M683 742.5H341c-19.9 0-36-16.1-36-36v-180c0-19.9 16.1-36 36-36h342c19.9 0 36 16.1 36 36v180c0 19.8-16.1 36-36 36z" fill="#C1F4FF" p-id="10662"></path><path d="M584 742.5H440v-126c0-19.9 16.1-36 36-36h72c19.9 0 36 16.1 36 36v126z" fill="#F3FEFF" p-id="10663"></path></svg>