<svg t="1708268314466" class="icon" viewBox="0 0 1024 1024" version="1.1" xmlns="http://www.w3.org/2000/svg" p-id="22503" width="128" height="128"><path d="M980.012 768.29c-17.316-17.294-41.673-28.19-68.599-28.19h-90.39c-26.921 0-50.65 10.895-68.599 28.19-17.316 17.939-28.198 41.658-28.198 68.585v90.352c0 26.926 10.882 51.275 28.198 68.59 17.95 17.292 41.679 28.182 68.6 28.182h90.39c26.926 0 51.282-10.89 68.598-28.182 17.317-17.315 28.204-41.665 28.204-68.59v-90.352c0-26.927-10.887-50.646-28.204-68.585z m-29.485 158.937c0 10.894-4.502 20.505-11.541 27.557-7.06 7.056-16.663 11.547-27.574 11.547h-90.39c-10.91 0-20.512-4.49-27.573-11.547-7.04-7.052-10.89-16.663-10.89-27.557v-90.352c0-10.89 3.85-20.502 10.89-27.558 7.06-7.05 16.663-10.91 27.574-10.91h90.39c10.909 0 20.512 3.86 27.573 10.91 7.039 7.05 11.541 16.668 11.541 27.558v90.352zM549.85 740.1h-90.412c-26.905 0-51.282 10.895-68.577 28.19-17.95 17.939-28.205 41.658-28.205 68.585v90.352c0 26.926 10.257 51.275 28.205 68.59 17.295 17.292 41.679 28.182 68.577 28.182h90.413c26.266 0 50.65-10.89 68.593-28.182 17.3-17.315 28.21-41.665 28.21-68.59v-90.352c0-26.927-10.91-50.646-28.21-68.585-17.943-17.294-42.327-28.19-68.593-28.19z m38.456 187.127c0 10.894-3.843 20.505-10.905 27.557-7.037 7.056-17.294 11.547-27.55 11.547h-90.413c-10.888 0-20.513-4.49-27.552-11.547-7.04-7.052-11.542-16.663-11.542-27.557v-90.352c0-10.89 4.502-20.502 11.542-27.558 7.038-7.05 16.664-10.91 27.552-10.91h90.413c10.257 0 20.513 3.86 27.55 10.91 7.062 7.05 10.905 16.668 10.905 27.558v90.352z m30.138-882.493c-17.943-17.304-42.327-28.2-68.593-28.2h-90.413c-26.898 0-51.282 10.895-68.577 28.2-17.95 17.945-28.205 42.3-28.205 68.575v90.363c0 26.92 10.257 51.275 28.205 68.579 17.295 17.945 41.679 28.2 68.577 28.2h90.413c26.266 0 50.65-10.255 68.593-28.2 17.3-17.304 28.21-41.66 28.21-68.58V113.31c0-26.274-10.91-50.635-28.21-68.575z m-30.138 158.939c0 10.894-3.843 20.506-10.905 27.556-7.037 7.051-17.294 11.54-27.55 11.54h-90.413c-10.888 0-20.513-4.489-27.552-11.54-7.04-7.051-11.542-16.662-11.542-27.556v-90.364c0-10.253 4.502-20.507 11.542-27.557 7.038-6.409 16.664-10.89 27.552-10.89h90.413c10.257 0 20.513 3.84 27.55 10.89 7.062 7.05 10.905 17.304 10.905 27.557v90.364zM113.908 678.562c0 8.333 3.217 15.385 8.345 20.506 5.123 5.142 12.166 8.334 20.507 8.334 7.693 0 15.385-3.192 20.513-8.334 5.127-5.12 8.323-12.173 8.323-20.5V526.675H475.47v151.892c0 8.327 3.217 15.38 8.345 20.5 5.13 5.142 12.822 8.986 20.513 8.986 8.324 0 15.385-3.843 20.512-8.986 5.128-5.12 8.34-12.173 8.34-20.5V526.675h303.88v151.887c0 8.333 3.195 15.385 8.972 20.506 5.128 5.142 12.166 8.986 20.512 8.986 7.693 0 14.731-3.843 20.513-8.986 5.13-5.12 8.324-12.173 8.324-20.506V497.841c0-7.694-3.195-15.386-8.324-20.507-5.782-5.132-12.82-8.334-20.513-8.334H533.812V361.974c0-7.693-3.844-14.744-8.972-20.505-5.127-5.134-12.19-8.336-20.512-8.336-7.692 0-15.385 3.202-20.513 8.336-5.128 5.76-8.345 12.812-8.345 20.505V469H142.766c-8.346 0-15.385 3.202-20.512 8.334-5.128 5.121-8.999 12.814-8.999 20.507h0.654v180.721z m73.727 61.538H97.22c-26.903 0-50.628 10.895-68.577 28.19C11.327 786.229 0.439 809.948 0.439 836.875v90.352c0 26.926 10.888 51.275 28.205 68.59 17.95 17.292 41.674 28.182 68.577 28.182h90.414c26.92 0 51.275-10.89 68.592-28.182 17.95-17.315 28.205-41.665 28.205-68.59v-90.352c0-26.927-10.257-50.646-28.205-68.585-17.317-17.294-41.673-28.19-68.592-28.19z m39.087 187.127c0 10.894-4.474 20.505-11.514 27.557-7.066 7.056-16.69 11.547-27.572 11.547H97.222c-10.255 0-20.512-4.49-27.55-11.547-7.045-7.052-10.91-16.663-10.91-27.557v-90.352c0-10.89 3.865-20.502 10.91-27.558 7.038-7.05 16.662-10.91 27.55-10.91h90.414c10.881 0 20.507 3.86 27.572 10.91 7.039 7.05 11.514 16.668 11.514 27.558v90.352z" p-id="22504" fill="#000"></path></svg>