<svg t="1708268429994" class="icon" viewBox="0 0 1034 1024" version="1.1" xmlns="http://www.w3.org/2000/svg" p-id="25262" width="128" height="128"><path d="M867.727088 1023.998849h-741.646209A125.568375 125.568375 0 0 1 0.001023 898.558344v-741.64621A125.568375 125.568375 0 0 1 125.441529 30.832279h370.823104a36.31509 36.31509 0 1 1 0 72.50231h-370.823104a52.938195 52.938195 0 0 0-52.938195 52.938195v742.28556a53.066065 53.066065 0 0 0 52.938195 52.938195h742.285559A53.066065 53.066065 0 0 0 920.665283 898.558344v-370.823105a36.31509 36.31509 0 0 1 72.50231 0v370.823105a125.568375 125.568375 0 0 1-125.440505 125.440505z" p-id="25263" fill="#000"></path><path d="M294.102106 761.353795a35.80361 35.80361 0 0 1-25.574007-10.868953 36.18722 36.18722 0 0 1 0-51.148014L972.580518 10.500943a36.18722 36.18722 0 1 1 51.148014 51.787365L319.676113 750.996322a35.93148 35.93148 0 0 1-25.574007 10.357473z" p-id="25264" fill="#000"></path></svg>