<svg t="1709550969872" class="icon" viewBox="0 0 1024 1024" version="1.1" xmlns="http://www.w3.org/2000/svg" p-id="17631" width="128" height="128"><path d="M898.04 328.62H666.42c-15.82 0-28.96-13.12-28.96-28.96 0-15.82 13.12-28.96 28.96-28.96h231.62c15.82 0 28.96 13.12 28.96 28.96 0 15.84-13.12 28.96-28.96 28.96zM280.38 328.62H125.96c-15.82 0-28.96-13.12-28.96-28.96 0-15.82 13.12-28.96 28.96-28.96h154.42c15.82 0 28.96 13.12 28.96 28.96-0.02 15.84-13.14 28.96-28.96 28.96z" fill="#ffffff" p-id="17632" data-spm-anchor-id="a313x.search_index.0.i26.29f93a81JYBNL7" class="selected"></path><path d="M434.8 463.74c-90.34 0-164.06-73.74-164.06-164.06S344.46 135.6 434.8 135.6s164.06 73.74 164.06 164.06-73.74 164.08-164.06 164.08z m0-270.22c-58.68 0-106.16 47.48-106.16 106.16s47.48 106.16 106.16 106.16 106.16-47.48 106.16-106.16-47.5-106.16-106.16-106.16zM898.04 753.28h-154.42c-15.82 0-28.96-13.12-28.96-28.96 0-15.82 13.12-28.96 28.96-28.96h154.42c15.82 0 28.96 13.12 28.96 28.96 0 15.84-13.12 28.96-28.96 28.96zM357.58 753.28H125.96c-15.82 0-28.96-13.12-28.96-28.96 0-15.82 13.12-28.96 28.96-28.96h231.62c15.82 0 28.96 13.12 28.96 28.96 0 15.84-13.14 28.96-28.96 28.96z" fill="#ffffff" p-id="17633" data-spm-anchor-id="a313x.search_index.0.i25.29f93a81JYBNL7" class="selected"></path><path d="M589.2 888.4c-90.34 0-164.06-73.74-164.06-164.06s73.74-164.06 164.06-164.06 164.06 73.74 164.06 164.06-73.72 164.06-164.06 164.06z m0-270.24c-58.68 0-106.16 47.48-106.16 106.16s47.48 106.16 106.16 106.16 106.16-47.48 106.16-106.16c0.02-58.68-47.48-106.16-106.16-106.16z" fill="#ffffff" p-id="17634" data-spm-anchor-id="a313x.search_index.0.i23.29f93a81JYBNL7" class="selected"></path></svg>