<svg height="122" node-id="1" sillyvg="true" template-height="122" template-width="185" version="1.1" viewBox="0 0 185 122" width="185" xmlns="http://www.w3.org/2000/svg" xmlns:xlink="http://www.w3.org/1999/xlink"><defs node-id="60"><linearGradient gradientUnits="objectBoundingBox" id="linear-gradient" node-id="3" spreadMethod="pad" x1="0.5" x2="0.5" y1="0" y2="1.951"><stop offset="0" stop-color="#ffe0e1"/><stop offset="1" stop-color="#ffffff" stop-opacity="0"/></linearGradient><linearGradient gradientUnits="objectBoundingBox" id="linear-gradient-3" node-id="6" spreadMethod="pad" x1="0.5" x2="0.5" y1="0" y2="1"><stop offset="0" stop-color="#ffe0e0"/><stop offset="0.6" stop-color="#ffffff" stop-opacity="0.502"/><stop offset="1" stop-color="#ffffff" stop-opacity="0"/></linearGradient><linearGradient gradientUnits="objectBoundingBox" id="linear-gradient-4" node-id="10" spreadMethod="pad" x1="0.527" x2="0.758" y1="0.553" y2="1"><stop offset="0" stop-color="#ffffff" stop-opacity="0"/><stop offset="1" stop-color="#ffb2b2"/></linearGradient><linearGradient gradientUnits="objectBoundingBox" id="linear-gradient-6" node-id="13" spreadMethod="pad" x1="0.527" x2="0.758" y1="0.553" y2="1"><stop offset="0" stop-color="#ffffff"/><stop offset="1" stop-color="#ffb2b2"/></linearGradient><linearGradient gradientUnits="objectBoundingBox" id="linear-gradient-8" node-id="16" spreadMethod="pad" x1="0.5" x2="0.46" y1="1" y2="-1.129"><stop offset="0" stop-color="#ffc6c6"/><stop offset="1" stop-color="#ffaaaa"/></linearGradient><linearGradient gradientUnits="objectBoundingBox" id="linear-gradient-16" node-id="19" spreadMethod="pad" x1="0" x2="1.38" y1="0.618" y2="0.324"><stop offset="0" stop-color="#fff4f4"/><stop offset="1" stop-color="#fdc6c6"/></linearGradient><linearGradient gradientUnits="objectBoundingBox" id="linear-gradient-17" node-id="22" spreadMethod="pad" x1="0.5" x2="0.5" y1="0" y2="1.137"><stop offset="0" stop-color="#fff5f5"/><stop offset="1" stop-color="#ffd9d9"/></linearGradient><linearGradient gradientUnits="objectBoundingBox" id="linear-gradient-18" node-id="25" spreadMethod="pad" x1="0.127" x2="0.823" y1="0.44" y2="0.851"><stop offset="0" stop-color="#ffe6e6"/><stop offset="1" stop-color="#fdbbbb"/></linearGradient><linearGradient gradientUnits="objectBoundingBox" id="linear-gradient-19" node-id="28" spreadMethod="pad" x1="0.5" x2="0.5" y1="0" y2="1"><stop offset="0" stop-color="#ffe2e2"/><stop offset="1" stop-color="#ffafaf"/></linearGradient></defs><g node-id="117"><path d="M 136.59 11.73 L 132.19 11.73 L 130.95 11.67 L 129.83 11.43 L 128.70 10.90 L 128.11 10.37 L 127.76 9.62 L 127.66 8.57 L 128.05 7.24 L 128.69 6.55 L 129.54 6.18 L 130.32 6.08 L 131.16 6.14 L 131.33 5.15 L 131.63 4.20 L 132.27 2.99 L 133.19 1.88 L 134.64 0.87 L 136.45 0.23 L 139.12 0.01 L 141.70 0.39 L 143.50 1.16 L 144.94 2.29 L 145.89 3.49 L 146.54 4.78 L 146.88 5.78 L 147.07 6.81 L 148.01 6.98 L 148.80 7.45 L 149.38 8.15 L 149.68 9.06 L 149.50 10.21 L 148.83 11.03 L 147.84 11.55 L 146.71 11.73 L 136.59 11.73 Z" fill="url(#linear-gradient)" fill-rule="nonzero" group-id="1" id="路径_16684" node-id="32" stroke="none" target-height="11.726997" target-width="22.024002" target-x="127.65999" target-y="0.0050201416"/></g><g node-id="118"><path d="M 30.59 19.11 L 29.28 20.85 L 28.29 23.11 L 27.75 25.46 L 27.64 27.93 L 26.32 27.62 L 25.00 27.64 L 23.72 27.98 L 22.53 28.64 L 21.75 29.63 L 21.46 30.84 L 21.69 32.07 L 22.50 33.21 L 23.28 33.76 L 24.38 34.15 L 25.88 34.32 L 56.32 34.32 L 57.12 34.35 L 57.86 34.23 L 58.63 33.89 L 59.20 33.27 L 59.50 32.12 L 59.36 31.06 L 59.02 30.35 L 58.51 29.89 L 57.51 29.45 L 56.54 29.31 L 55.47 29.35 L 55.73 28.01 L 55.53 26.72 L 54.89 25.58 L 53.85 24.69 L 52.53 24.21 L 51.18 24.20 L 49.90 24.64 L 48.79 25.51 L 48.43 23.77 L 47.87 22.11 L 46.80 20.09 L 45.87 18.84 L 44.64 17.74 L 43.08 16.78 L 41.38 16.17 L 39.21 15.93 L 36.44 16.14 L 34.19 16.75 L 32.28 17.75 L 30.59 19.10 Z" fill="url(#linear-gradient)" fill-rule="nonzero" group-id="2" id="路径_16685" node-id="33" stroke="none" target-height="18.418854" target-width="38.035736" target-x="21.460266" target-y="15.927765"/></g><g node-id="119"><g node-id="121"><path d="M 171.40 98.49 L 171.14 100.28 L 170.38 102.08 L 169.05 103.92 L 167.03 105.83 L 164.02 107.93 L 160.03 110.06 L 154.86 112.22 L 149.58 113.98 L 143.43 115.67 L 136.31 117.25 L 129.17 118.53 L 121.34 119.63 L 112.79 120.55 L 104.23 121.19 L 95.21 121.59 L 85.70 121.73 L 76.19 121.59 L 67.17 121.19 L 58.61 120.55 L 50.06 119.63 L 42.23 118.53 L 35.09 117.25 L 27.97 115.67 L 21.82 113.98 L 16.53 112.22 L 11.36 110.06 L 7.37 107.93 L 4.37 105.83 L 2.34 103.92 L 1.02 102.08 L 0.26 100.28 L 0.00 98.49 L 0.26 96.69 L 1.02 94.89 L 2.34 93.05 L 4.37 91.14 L 7.37 89.04 L 11.36 86.91 L 16.53 84.76 L 21.82 82.99 L 27.97 81.30 L 35.09 79.72 L 42.23 78.45 L 50.06 77.34 L 58.61 76.42 L 67.17 75.78 L 76.19 75.38 L 85.70 75.24 L 95.21 75.38 L 104.23 75.78 L 112.79 76.42 L 121.34 77.34 L 129.17 78.45 L 136.31 79.72 L 143.43 81.30 L 149.58 82.99 L 154.86 84.76 L 160.03 86.91 L 164.02 89.04 L 167.03 91.14 L 169.05 93.05 L 170.38 94.89 L 171.14 96.69 L 171.40 98.49 Z" fill="url(#linear-gradient-3)" fill-rule="nonzero" group-id="3,5" id="椭圆形" node-id="35" stroke="none" target-height="46.496002" target-width="171.398" target-x="0" target-y="75.23804"/></g><g node-id="122"><path d="M 37.52 85.75 L 37.51 86.56 L 13.28 86.13 L 13.30 85.33 Z" fill="url(#linear-gradient-4)" fill-rule="evenodd" group-id="3,6" id="矩形-copy-5" node-id="36" stroke="none" target-height="1.2277298" target-width="24.239359" target-x="13.281637" target-y="85.32916"/></g><g node-id="123"><path d="M 151.60 81.03 L 151.58 81.88 L 126.07 81.44 L 126.08 80.59 Z" fill="url(#linear-gradient-4)" fill-rule="evenodd" group-id="3,7" id="矩形-copy-5-2" node-id="37" stroke="none" target-height="1.2932892" target-width="25.532913" target-x="126.066086" target-y="80.58858"/></g><g node-id="124"><path d="M 67.05 110.11 L 67.03 111.48 L 26.42 110.76 L 26.44 109.40 Z" fill="url(#linear-gradient-6)" fill-rule="evenodd" group-id="3,8" id="矩形-copy-5-3" node-id="38" stroke="none" target-height="2.084694" target-width="40.636566" target-x="26.417313" target-y="109.39614"/></g><g node-id="125"><path d="M 184.71 102.91 L 184.68 104.36 L 141.90 103.60 L 141.93 102.16 Z" fill="url(#linear-gradient-6)" fill-rule="evenodd" group-id="3,9" id="矩形-copy-5-4" node-id="39" stroke="none" target-height="2.196495" target-width="42.80452" target-x="141.90335" target-y="102.15929"/></g><g node-id="126"><path d="M 26.42 97.37 L 28.31 97.37 L 28.31 110.44 L 26.42 110.44 Z" fill="url(#linear-gradient-8)" fill-rule="nonzero" group-id="3,10" id="矩形" node-id="40" stroke="none" target-height="13.072998" target-width="1.8899994" target-x="26.416992" target-y="97.36603"/></g><g node-id="127"><path d="M 141.90 89.49 L 143.89 89.49 L 143.89 103.26 L 141.90 103.26 Z" fill="url(#linear-gradient-8)" fill-rule="nonzero" group-id="3,11" id="矩形-2" node-id="41" stroke="none" target-height="13.770996" target-width="1.9909973" target-x="141.90302" target-y="89.48602"/></g><g node-id="128"><path d="M 27.36 81.49 L 27.36 100.17 L 33.98 95.73 Z" fill="url(#linear-gradient-8)" fill-rule="evenodd" group-id="3,12" id="路径-4" node-id="42" stroke="none" target-height="18.676003" target-width="6.616001" target-x="27.363018" target-y="81.49103"/></g><g node-id="129"><path d="M 142.90 72.76 L 142.90 92.44 L 149.87 87.76 Z" fill="url(#linear-gradient-8)" fill-rule="evenodd" group-id="3,13" id="路径-4-2" node-id="43" stroke="none" target-height="19.673004" target-width="6.970001" target-x="142.899" target-y="72.76404"/></g><g node-id="130"><path d="M 27.36 81.49 L 27.36 100.17 L 16.96 95.77 Z" fill="#ffefef" fill-rule="evenodd" group-id="3,14" id="路径-4-copy" node-id="44" stroke="none" target-height="18.676003" target-width="10.4" target-x="16.963007" target-y="81.49001"/></g><g node-id="131"><path d="M 142.90 72.76 L 142.90 92.44 L 131.95 87.81 Z" fill="#ffefef" fill-rule="evenodd" group-id="3,15" id="路径-4-copy-2" node-id="45" stroke="none" target-height="19.673004" target-width="10.951996" target-x="131.94699" target-y="72.76303"/></g><g node-id="132"><path d="M 13.30 78.91 L 15.06 78.91 L 15.06 85.94 L 13.30 85.94 Z" fill="url(#linear-gradient-8)" fill-rule="nonzero" group-id="3,16" id="矩形-3" node-id="46" stroke="none" target-height="7.030998" target-width="1.7580004" target-x="13.298004" target-y="78.91101"/></g><g node-id="133"><path d="M 126.08 73.83 L 127.94 73.83 L 127.94 81.23 L 126.08 81.23 Z" fill="url(#linear-gradient-8)" fill-rule="nonzero" group-id="3,17" id="矩形-4" node-id="47" stroke="none" target-height="7.405998" target-width="1.8519974" target-x="126.08301" target-y="73.82703"/></g><g node-id="134"><path d="M 14.17 69.24 L 14.17 80.67 L 17.69 77.96 Z" fill="url(#linear-gradient-8)" fill-rule="evenodd" group-id="3,18" id="路径-4-3" node-id="48" stroke="none" target-height="11.425003" target-width="3.5199995" target-x="14.173993" target-y="69.24304"/></g><g node-id="135"><path d="M 127.01 63.64 L 127.01 75.68 L 130.71 72.82 Z" fill="url(#linear-gradient-8)" fill-rule="evenodd" group-id="3,19" id="路径-4-4" node-id="49" stroke="none" target-height="12.035004" target-width="3.699997" target-x="127.006" target-y="63.643005"/></g><g node-id="136"><path d="M 14.18 69.24 L 14.18 80.67 L 8.03 77.98 Z" fill="#ffefef" fill-rule="evenodd" group-id="3,20" id="路径-4-copy-3" node-id="50" stroke="none" target-height="11.425003" target-width="6.1520004" target-x="8.025002" target-y="69.24303"/></g><path d="M 127.01 63.64 L 127.01 75.68 L 120.53 72.85 Z" fill="#ffefef" fill-rule="evenodd" group-id="3,21" id="路径-4-copy-4" node-id="51" stroke="none" target-height="12.035" target-width="6.4800034" target-x="120.52903" target-y="63.64304"/></g><g node-id="120"><g node-id="138"><path d="M 69.33 42.62 L 109.37 42.62 L 110.29 42.90 L 110.89 43.64 L 121.47 77.49 L 121.45 77.88 L 121.16 78.21 L 120.67 78.42 L 119.95 78.51 L 58.75 78.51 L 58.03 78.42 L 57.54 78.21 L 57.25 77.88 L 57.23 77.49 L 67.81 43.64 L 68.41 42.90 L 69.33 42.62 Z" fill="url(#linear-gradient-16)" fill-rule="evenodd" group-id="4,22" id="矩形-5" node-id="53" stroke="none" target-height="35.892" target-width="64.241" target-x="57.230003" target-y="42.62001"/></g><g node-id="139"><path d="M 71.36 44.46 L 107.47 44.46 L 108.29 44.71 L 108.84 45.37 L 118.38 75.76 L 118.36 76.10 L 118.09 76.40 L 117.65 76.59 L 117.00 76.67 L 61.82 76.67 L 61.17 76.59 L 60.73 76.40 L 60.47 76.10 L 60.45 75.76 L 69.99 45.37 L 70.53 44.71 L 71.36 44.46 Z" fill="url(#linear-gradient-17)" fill-rule="evenodd" group-id="4,23" id="矩形-6" node-id="54" stroke="none" target-height="32.208996" target-width="57.924995" target-x="60.450005" target-y="44.46001"/></g><g node-id="140"><path d="M 60.54 74.37 L 117.82 74.37 L 119.31 74.67 L 120.51 75.48 L 121.32 76.68 L 121.62 78.17 L 121.62 93.11 L 121.32 94.60 L 120.51 95.80 L 119.31 96.61 L 117.82 96.91 L 60.54 96.91 L 59.05 96.61 L 57.85 95.80 L 57.05 94.60 L 56.74 93.11 L 56.74 78.17 L 57.05 76.68 L 57.85 75.48 L 59.05 74.67 L 60.54 74.37 Z" fill="url(#linear-gradient-18)" fill-rule="nonzero" group-id="4,24" id="矩形-7" node-id="55" stroke="none" target-height="22.545998" target-width="64.878" target-x="56.742004" target-y="74.36801"/></g><g node-id="141"><path d="M 78.37 83.11 L 100.45 83.11 L 101.54 83.33 L 102.41 83.92 L 102.99 84.79 L 103.21 85.87 L 103.21 85.87 L 102.99 86.95 L 102.41 87.82 L 101.54 88.41 L 100.45 88.63 L 78.37 88.63 L 77.29 88.41 L 76.42 87.82 L 75.83 86.95 L 75.61 85.87 L 75.61 85.87 L 75.83 84.79 L 76.42 83.92 L 77.29 83.33 L 78.37 83.11 Z" fill="url(#linear-gradient-19)" fill-rule="nonzero" group-id="4,25" id="矩形-8" node-id="56" stroke="none" target-height="5.520996" target-width="27.607002" target-x="75.60701" target-y="83.11101"/></g><g node-id="142"><path d="M 45.70 79.43 L 45.97 71.86 L 46.72 65.70 L 47.86 60.73 L 49.31 56.77 L 51.01 53.66 L 52.93 51.26 L 55.08 49.46 L 57.48 48.17 L 60.18 47.39 L 63.25 47.12 L 67.75 47.39 L 71.59 48.16 L 74.88 49.37 L 77.70 50.99 L 80.11 53.04 L 82.16 55.53 L 83.85 58.52 L 85.18 62.10 L 85.44 55.21 L 86.22 49.41 L 87.44 44.54 L 89.04 40.47 L 90.98 37.10 L 93.25 34.32 L 95.86 32.07 L 98.83 30.30 L 102.22 29.00 L 106.11 28.18 L 110.58 27.90" fill="none" group-id="4,26" id="路径-2" node-id="57" stroke="#ffd5d5" stroke-dasharray="2 2" stroke-linecap="round" stroke-width="1" target-height="51.533997" target-width="64.878" target-x="45.699005" target-y="27.896011"/></g><path d="M 120.41 29.13 L 120.09 30.70 L 119.24 31.96 L 117.98 32.81 L 116.41 33.13 L 114.85 32.81 L 113.59 31.96 L 112.74 30.70 L 112.42 29.13 L 112.74 27.56 L 113.59 26.31 L 114.85 25.45 L 116.41 25.14 L 117.98 25.45 L 119.24 26.31 L 120.09 27.56 L 120.41 29.13 Z" fill="#ff9da0" fill-rule="nonzero" group-id="4,27" id="椭圆形-2" node-id="58" stroke="none" target-height="7.9920006" target-width="7.991997" target-x="112.41701" target-y="25.13501"/></g></svg>