<svg t="1696515581824" class="icon" viewBox="0 0 1024 1024" version="1.1" xmlns="http://www.w3.org/2000/svg"
     p-id="15507" width="128" height="128">
    <path d="M186.402712 269.676475h651.194576a34.711864 34.711864 0 0 1 34.486237 38.634305l-76.817356 676.881356a34.711864 34.711864 0 0 1-34.486237 30.789423H263.220068a34.711864 34.711864 0 0 1-34.486237-30.789423l-76.817356-676.881356a34.711864 34.711864 0 0 1 34.486237-38.634305zM754.983051 121.491525h173.559322a34.711864 34.711864 0 0 1 34.711864 34.711865v17.355932a34.711864 34.711864 0 0 1-34.711864 34.711864H95.457627a34.711864 34.711864 0 0 1-34.711864-34.711864V156.20339a34.711864 34.711864 0 0 1 34.711864-34.711865h173.559322V34.711864a34.711864 34.711864 0 0 1 34.711865-34.711864h416.542372a34.711864 34.711864 0 0 1 34.711865 34.711864v86.779661z m-86.779661 0V86.779661a17.355932 17.355932 0 0 0-17.355932-17.355932H373.152542a17.355932 17.355932 0 0 0-17.355932 17.355932v34.711864h312.40678z"
          fill="#fff" p-id="15508" data-spm-anchor-id="a313x.search_index.0.i5.a03d3a81KVu5ly"
          class="selected"></path>
</svg>