<svg t="1708399729042" class="icon" viewBox="0 0 1024 1024" version="1.1" xmlns="http://www.w3.org/2000/svg" p-id="4422" width="128" height="128"><path d="M921.6 581.632c0 12.288-8.192 20.48-20.48 20.48s-20.48-8.192-20.48-20.48V204.8c0-34.816-26.624-61.44-61.44-61.44h-614.4c-34.816 0-61.44 26.624-61.44 61.44v614.4c0 34.816 26.624 61.44 61.44 61.44h614.4c34.816 0 61.44-26.624 61.44-61.44v-90.112c0-12.288 8.192-20.48 20.48-20.48s20.48 8.192 20.48 20.48v90.112c0 57.344-45.056 102.4-102.4 102.4h-614.4c-57.344 0-102.4-45.056-102.4-102.4v-614.4c0-57.344 45.056-102.4 102.4-102.4h614.4c57.344 0 102.4 45.056 102.4 102.4v376.832z m-430.08-315.392c0-12.288 8.192-20.48 20.48-20.48s20.48 8.192 20.48 20.48v102.4c0 12.288-8.192 20.48-20.48 20.48s-20.48-8.192-20.48-20.48v-102.4z m-204.8 389.12c0-12.288 8.192-20.48 20.48-20.48s20.48 8.192 20.48 20.48v102.4c0 12.288-8.192 20.48-20.48 20.48s-20.48-8.192-20.48-20.48v-102.4z m409.6 0c0-12.288 8.192-20.48 20.48-20.48s20.48 8.192 20.48 20.48v102.4c0 12.288-8.192 20.48-20.48 20.48s-20.48-8.192-20.48-20.48v-102.4z m-204.8-184.32c0-12.288 8.192-20.48 20.48-20.48s20.48 8.192 20.48 20.48v286.72c0 12.288-8.192 20.48-20.48 20.48s-20.48-8.192-20.48-20.48v-286.72z m-204.8-204.8c0-12.288 8.192-20.48 20.48-20.48s20.48 8.192 20.48 20.48v286.72c0 12.288-8.192 20.48-20.48 20.48s-20.48-8.192-20.48-20.48v-286.72z m409.6 0c0-12.288 8.192-20.48 20.48-20.48s20.48 8.192 20.48 20.48v286.72c0 12.288-8.192 20.48-20.48 20.48s-20.48-8.192-20.48-20.48v-286.72z" fill="#000" p-id="4423"></path></svg>