<svg t="1709550212337" class="icon" viewBox="0 0 1024 1024" version="1.1" xmlns="http://www.w3.org/2000/svg" p-id="7856" width="128" height="128"><path d="M671.532413 735.729527c-56.056714 0-163.475212-10.083659-253.105578-77.69043-83.522252-63.001893-125.861546-138.243551-166.805051-211.011877-42.092677-74.815963-81.857333-145.482419-164.451445-204.449416a24.530696 24.530696 0 0 1-9.646708-25.483394 24.533766 24.533766 0 0 1 19.84907-18.670222c2.831488-0.472767 70.517053-11.610432 167.918408-11.610432 102.18531 0 251.90217 12.8077 384.852158 73.845869 200.576201 92.066859 198.407816 263.489066 197.378369 345.867262-0.203638 15.939017-0.455371 35.775808 1.545193 41.027415 5.665023 11.45489 4.861728 24.831548-2.347465 36.417421-22.094204 35.568077-106.304118 51.757804-175.186951 51.757804zM161.981185 240.267179c61.565171 56.83545 97.460706 120.627335 132.393309 182.708252 40.243563 71.522963 78.252225 139.075499 153.595191 195.904808 78.217433 58.996672 173.636642 67.804269 223.561705 67.804269 71.409376 0 116.998691-16.299221 130.315997-25.783223-3.891633-13.418614-3.675716-30.824029-3.37691-54.996568 1.041726-82.995249 2.790556-221.903949-168.780031-300.664758-124.902708-57.337893-267.104407-69.372997-364.397291-69.372997-40.644699-0.001023-76.152401 2.065032-103.31197 4.400217z" stroke-width="3" p-id="7857" fill="#ffffff"></path><path d="M922.584216 837.18522c-9.783831 0-19.029402-5.903453-22.837125-15.5563-11.184737-28.405957-165.798117-313.587068-367.367948-438.818258C363.915313 278.145881 101.290941 247.285013 98.654904 246.986207c-13.45443-1.532913-23.130813-13.681604-21.597901-27.136033 1.521656-13.465686 13.658068-23.154349 27.123754-21.603018 11.190877 1.269923 276.121781 32.333406 454.088033 142.901641C772.388449 474.182696 931.648662 768.758782 945.396781 803.666826c4.957919 12.597923-1.234107 26.837228-13.84431 31.806403a24.416086 24.416086 0 0 1-8.968255 1.711991z" p-id="7858" stroke-width="3" fill="#ffffff"></path></svg>