<svg t="1708268580445" class="icon" viewBox="0 0 1024 1024" version="1.1" xmlns="http://www.w3.org/2000/svg" p-id="31538" width="128" height="128"><path d="M880.94 960H248.47c-43.6 0-79.06-35.46-79.06-79.06V248.47c0-43.6 35.46-79.06 79.06-79.06h632.47c43.6 0 79.06 35.46 79.06 79.06v632.47c0 43.6-35.46 79.06-79.06 79.06zM248.47 222.12c-14.53 0-26.35 11.82-26.35 26.35v632.47c0 14.53 11.82 26.35 26.35 26.35h632.47c14.53 0 26.35-11.82 26.35-26.35V248.47c0-14.53-11.82-26.35-26.35-26.35H248.47z" fill="#000" p-id="31539"></path><path d="M933.65 383.53H195.76c-14.55 0-26.35-11.8-26.35-26.35V248.47c0-43.6 35.46-79.06 79.06-79.06h632.47c43.6 0 79.06 35.46 79.06 79.06v108.71c0 14.55-11.8 26.35-26.35 26.35z m-711.53-52.71H907.3v-82.35c0-14.53-11.82-26.35-26.35-26.35H248.47c-14.53 0-26.35 11.82-26.35 26.35v82.35z" fill="#000" p-id="31540"></path><path d="M288 276.47m-23.06 0a23.06 23.06 0 1 0 46.12 0 23.06 23.06 0 1 0-46.12 0Z" fill="#000" p-id="31541"></path><path d="M357.18 276.47m-23.06 0a23.06 23.06 0 1 0 46.12 0 23.06 23.06 0 1 0-46.12 0Z" fill="#000" p-id="31542"></path><path d="M426.35 276.47m-23.06 0a23.06 23.06 0 1 0 46.12 0 23.06 23.06 0 1 0-46.12 0Z" fill="#000" p-id="31543"></path><path d="M195.76 854.59h-52.71c-43.6 0-79.06-35.46-79.06-79.06V143.06C64 99.46 99.46 64 143.06 64h632.47c43.6 0 79.06 35.46 79.06 79.06v52.71c0 14.55-11.8 26.35-26.35 26.35H248.47c-14.53 0-26.35 11.82-26.35 26.35v579.76c0 14.56-11.8 26.36-26.36 26.36z m-52.7-737.88c-14.53 0-26.35 11.82-26.35 26.35v632.47c0 14.53 11.82 26.35 26.35 26.35h26.35V248.47c0-43.6 35.46-79.06 79.06-79.06h553.41v-26.35c0-14.53-11.82-26.35-26.35-26.35H143.06z" fill="#000" p-id="31544"></path></svg>