<svg t="1650420413766" class="icon" viewBox="0 0 1024 1024" version="1.1" xmlns="http://www.w3.org/2000/svg" p-id="5090" width="200" height="200"><path d="M510.050302 1009.113308a504.54878 504.54878 0 1 1 504.470793-504.54878 505.094696 505.094696 0 0 1-504.471793 504.471792z m0-980.001071a475.452291 475.452291 0 1 0 475.374303 475.452291A475.998206 475.998206 0 0 0 510.050302 29.112237z" fill="#3EA1FC" p-id="5091"></path><path d="M694.301738 913.165183c184.643375-88.538274 273.804552-237.141236 267.408544-445.965863-22.232553-344.556584-438.944951-482.863142-532.943378-268.65635-44.308131 196.187585 223.567341 174.423959 329.188966 320.45332 94.388367 133.079369 73.170656 264.443004-63.653132 394.168893z" fill="#3EA1FC" p-id="5092"></path><path d="M321.663508 96.588776C137.020133 185.12605 47.858955 333.807 54.254964 542.553638 76.487517 887.111222 493.199915 1025.41678 587.198342 811.209989c44.386119-196.187585-223.489353-174.422959-329.03299-320.374333-94.388367-133.314332-73.326632-264.755955 63.498156-394.24688z" fill="#3EA1FC" p-id="5093"></path></svg>
