<svg t="1709133145526" class="icon" viewBox="0 0 1024 1024" version="1.1" xmlns="http://www.w3.org/2000/svg" p-id="16941" width="128" height="128"><path d="M779.946667 920.917333H244.394667c-96.597333 0-174.762667-78.506667-174.762667-174.762666v-32.768c0-18.773333 15.36-34.133333 34.133333-34.133334s34.133333 15.36 34.133334 34.133334v32.426666c0 58.709333 47.786667 106.496 106.496 106.496h535.552c58.709333 0 106.496-47.786667 106.496-106.496V303.104c0-58.709333-47.786667-106.496-106.496-106.496H244.394667c-58.709333 0-106.496 47.786667-106.496 106.496v260.778667c0 18.773333-15.36 34.133333-34.133334 34.133333s-34.133333-15.36-34.133333-34.133333V303.104c0-96.597333 78.506667-174.762667 174.762667-174.762667h535.552c96.597333 0 174.762667 78.506667 174.762666 174.762667v442.709333a174.762667 174.762667 0 0 1-174.762666 175.104z" fill="#2c2c2c" p-id="16942"></path><path d="M103.765333 747.52c-12.288 0-23.893333-6.485333-30.037333-18.090667a33.8944 33.8944 0 0 1 13.994667-46.08l262.826666-140.970666c21.504-13.653333 50.517333-17.749333 77.482667-10.24 26.965333 7.509333 49.493333 26.282667 61.781333 51.2l10.581334 21.162666c4.096 7.850667 10.922667 13.653333 19.456 16.042667 8.533333 2.389333 17.408 1.024 24.917333-3.754667l245.76-156.330666a33.928533 33.928533 0 0 1 47.104 10.581333c10.24 16.042667 5.461333 36.864-10.581333 47.104l-245.76 156.330667a98.884267 98.884267 0 0 1-141.653334-39.253334l-10.581333-21.162666a29.320533 29.320533 0 0 0-19.114667-15.701334 31.0272 31.0272 0 0 0-24.576 3.413334l-264.874666 141.994666c-5.802667 2.389333-11.264 3.754667-16.725334 3.754667z" fill="#2c2c2c" p-id="16943"></path><path d="M589.141333 503.808c-65.877333 0-119.466667-53.589333-119.466666-119.466667s53.589333-119.466667 119.466666-119.466666 119.466667 53.589333 119.466667 119.466666-53.930667 119.466667-119.466667 119.466667z m0-170.666667c-28.330667 0-51.2 22.869333-51.2 51.2s22.869333 51.2 51.2 51.2 51.2-22.869333 51.2-51.2-23.210667-51.2-51.2-51.2z" stroke="#000" stroke-width="3" p-id="16944"></path></svg>