<?xml version="1.0" standalone="no"?><!DOCTYPE svg PUBLIC "-//W3C//DTD SVG 1.1//EN" "http://www.w3.org/Graphics/SVG/1.1/DTD/svg11.dtd">
<svg t="1686753105122" class="icon" viewBox="0 0 1024 1024" version="1.1" xmlns="http://www.w3.org/2000/svg" p-id="1718"
     width="48" height="48"><path d="M512 0a512 512 0 1 0 512 512A512 512 0 0 0 512 0z m256.717 460.186a151.962 151.962 0 0 1-87.347 65.74 83.251 83.251 0 0 1-24.474 4.096 29.082 29.082 0 0 1 0-58.163 15.667 15.667 0 0 0 6.451-1.229 91.443 91.443 0 0 0 55.91-40.96 75.264 75.264 0 0 0 11.06-39.628c0-45.978-42.496-83.866-94.31-83.866a105.267 105.267 0 0 0-51.2 13.414 81.92 81.92 0 0 0-43.725 70.452v244.224a138.445 138.445 0 0 1-72.704 120.422 159.642 159.642 0 0 1-79.77 20.48c-84.378 0-153.6-63.488-153.6-142.029a136.192 136.192 0 0 1 19.763-69.837 151.962 151.962 0 0 1 87.347-65.74 85.914 85.914 0 0 1 24.474-4.096 29.082 29.082 0 1 1 0 58.163 15.667 15.667 0 0 0-6.451 1.229 95.949 95.949 0 0 0-55.91 40.96 75.264 75.264 0 0 0-11.06 39.628c0 45.978 42.496 83.866 94.925 83.866a105.267 105.267 0 0 0 51.2-13.414 81.92 81.92 0 0 0 43.622-70.452V390.35a138.752 138.752 0 0 1 72.807-120.525 151.245 151.245 0 0 1 79.155-21.504c84.378 0 153.6 63.488 153.6 142.029a136.192 136.192 0 0 1-19.763 69.837z" fill="#FF7E05" p-id="1719" data-spm-anchor-id="a313x.7781069.0.i0" class=""></path></svg>