<svg xmlns="http://www.w3.org/2000/svg" xmlns:xlink="http://www.w3.org/1999/xlink" fill="none" version="1.1" width="32" height="32" viewBox="0 0 32 32"><g><g><rect x="7" y="6" width="19" height="19" rx="0" fill="#FFFFFF" fill-opacity="1"/></g><g><path d="M16,0C7.16344,0,0,7.16344,0,16C0,24.8366,7.16344,32,16,32C24.8366,32,32,24.8366,32,16C32,7.16344,24.8366,0,16,0ZM24.0224,14.3808C23.3989,15.3805,22.426,16.1127,21.2928,16.4352C21.0457,16.5158,20.7879,16.559,20.528,16.5632C20.0282,16.5603,19.6245,16.1542,19.6245,15.6544C19.6245,15.1545,20.0282,14.7485,20.528,14.7456C20.5972,14.7472,20.6659,14.7341,20.7296,14.7072C21.4574,14.5263,22.0849,14.0666,22.4768,13.4272C22.7048,13.0545,22.8244,12.6257,22.8224,12.1888C22.8224,10.752,21.4944,9.568,19.8752,9.568C19.3149,9.56918,18.7641,9.71347,18.2752,9.98719C17.4545,10.4193,16.9318,11.2616,16.9088,12.1888Q16.8858,13.116,16.9088,19.8208C16.8926,21.3952,16.0225,22.8365,14.6368,23.584C13.8762,24.0117,13.0166,24.2324,12.144,24.224C9.50719,24.224,7.344,22.24,7.344,19.7856C7.34867,19.0157,7.56211,18.2614,7.96159,17.6032C8.58511,16.6035,9.55798,15.8713,10.6912,15.5488C10.9386,15.4694,11.1962,15.4262,11.456,15.4208C11.96,15.4179,12.3701,15.8256,12.3701,16.3296C12.3701,16.8336,11.96,17.2414,11.456,17.2384C11.3868,17.2368,11.3181,17.2499,11.2544,17.2768C10.5329,17.4709,9.90979,17.9274,9.50722,18.5568C9.27923,18.9295,9.15955,19.3583,9.1616,19.7952C9.1616,21.232,10.4896,22.416,12.128,22.416C12.6883,22.4148,13.2391,22.2705,13.728,21.9968C14.5474,21.5638,15.0688,20.7217,15.0912,19.7952L15.0912,12.1984C15.1089,10.6228,15.98,9.18083,17.3664,8.43203C18.1133,7.98446,18.9693,7.75191,19.84,7.76003C22.4768,7.76003,24.64,9.74403,24.64,12.1984C24.6353,12.9684,24.4219,13.7226,24.0224,14.3808Z" fill="#0084FF" fill-opacity="1"/></g></g></svg>